<?xml version="1.0" encoding="UTF-8"?>
<svg id="Layer_2" data-name="Layer 2" xmlns="http://www.w3.org/2000/svg" xmlns:xlink="http://www.w3.org/1999/xlink" viewBox="0 0 1104.19 372.96">
  <defs>
    <style>
      .cls-1 {
        fill: #00c281;
      }

      .cls-2 {
        fill: url(#linear-gradient-2);
      }

      .cls-3 {
        fill: #007bd2;
        font-family: Montserrat-ExtraBold, Montserrat;
        font-weight: 700;
      }

      .cls-3, .cls-4 {
        font-size: 158.12px;
      }

      .cls-5 {
        fill: url(#linear-gradient-4);
      }

      .cls-6 {
        letter-spacing: 0em;
      }

      .cls-7 {
        fill: url(#linear-gradient-3);
      }

      .cls-8 {
        letter-spacing: -.01em;
      }

      .cls-9 {
        fill: url(#linear-gradient-5);
      }

      .cls-10 {
        fill: #4c4c4c;
        font-size: 33.16px;
      }

      .cls-10, .cls-4 {
        font-family: Montserrat-Medium, Montserrat;
        font-weight: 500;
      }

      .cls-11 {
        fill: url(#linear-gradient-6);
      }

      .cls-12 {
        letter-spacing: -.02em;
      }

      .cls-13 {
        letter-spacing: -.01em;
      }

      .cls-14 {
        fill: url(#linear-gradient);
      }

      .cls-4 {
        fill: #37d36b;
      }

      .cls-15 {
        fill: #006fc9;
      }

      .cls-16 {
        letter-spacing: 0em;
      }
    </style>
    <linearGradient id="linear-gradient" x1="59.24" y1="165.68" x2="305.78" y2="165.68" gradientUnits="userSpaceOnUse">
      <stop offset="0" stop-color="#2bb8d1"/>
      <stop offset="1" stop-color="#007bd2"/>
    </linearGradient>
    <linearGradient id="linear-gradient-2" x1="320.54" y1="127.6" x2="137.87" y2="261.47" gradientUnits="userSpaceOnUse">
      <stop offset=".04" stop-color="#00ada1"/>
      <stop offset=".99" stop-color="#007bd2"/>
    </linearGradient>
    <linearGradient id="linear-gradient-3" x1="88.47" y1="270.87" x2="257.08" y2="90.99" gradientUnits="userSpaceOnUse">
      <stop offset=".05" stop-color="#007bd2"/>
      <stop offset=".32" stop-color="#00bb74"/>
      <stop offset=".89" stop-color="#37d36b"/>
    </linearGradient>
    <linearGradient id="linear-gradient-4" x1="195.98" y1="68.73" x2="80.77" y2="186.96" xlink:href="#linear-gradient"/>
    <linearGradient id="linear-gradient-5" x1="97.97" y1="161.63" x2="206.01" y2="99.46" gradientUnits="userSpaceOnUse">
      <stop offset="0" stop-color="#0886d2"/>
      <stop offset=".36" stop-color="#00bf83"/>
      <stop offset="1" stop-color="#00c16b"/>
    </linearGradient>
    <linearGradient id="linear-gradient-6" x1="111.21" y1="267.31" x2="262.66" y2="203.28" gradientUnits="userSpaceOnUse">
      <stop offset="0" stop-color="#00be96"/>
      <stop offset="1" stop-color="#00c16b"/>
    </linearGradient>
  </defs>
  <g>
    <path class="cls-14" d="M239.21,99.24l-5.79,2.18h0l-6.1,2.29-2.25.84-.09.04,20.88,18.14h0s-7.86,8.8-7.86,8.8l-45.43,50.81-.04.04-7.97-7.56c-8.52-8.66-13.19-13.06-25.56-14.15-9.1-.83-18.84,7.63-23.09,11.85-.08.09-.16.16-.24.24l-.23.23c-.36.37-.68.7-.93.97-.38.4-.63.68-.72.79t-.02.02c-.04.05-.06.08-.06.08l-34.98,38.66-.31.34h0s0,.02,0,.02h0s-2.46,2.72-2.46,2.72l-13.93,15.39-22.8,25.2h21.13l60.73-68.55c5.15-5.73,10.02-11.75,18.62-10.89,8.31.86,14.32,9.17,14.32,9.17,10.04,9.46,12.04,11.75,19.49,12.32,9.46.86,20.34-15.19,20.34-15.19,5.88-4.49,32.28-36.02,55.28-64.05v-.05h-2.41v-4.42h2.41v-8.71c0-3,.86-5.32,2.56-6.97,1.71-1.64,4.12-2.47,7.21-2.47,2.87,0,5.13.78,6.8,2.32.02-.02.05-.05.06-.07,10.93-13.44,18.48-23.46,19.49-24.71l.22-.27.27-.38-66.56,25.03Z"/>
    <path class="cls-2" d="M305.78,74.21l-11.82,88.93-21.44-19.24-2.03,2.18-1.97,2.13-1.23,1.32-15.33,16.52h0s-35.79,38.58-35.79,38.58c0,0-10.17,10.45-22.26,9.9-12.65-.82-14.85-3.85-26.11-14.01l-10.45-9.9-42.04,46.89-.25.27-3.69,4.12c1.45,1.7,2.98,3.35,4.56,4.93,16.91,17,40.57,27.56,66.76,27.56,35.73,0,66.76-19.65,82.35-48.48-16.97,34.66-52.3,58.49-93.12,58.49-25.65,0-49.13-9.41-67.26-25-1.69-1.45-3.33-2.96-4.92-4.52l-2.04,2.28h-17.34l60.73-68.55c5.15-5.73,10.02-11.75,18.62-10.89,8.31.86,14.32,9.17,14.32,9.17,10.04,9.46,12.04,11.75,19.49,12.32,9.46.86,20.34-15.19,20.34-15.19,5.88-4.49,32.28-36.02,55.28-64.05v3.07c0,1.34-.24,2.39-.72,3.13-.49.75-1.17,1.12-2.05,1.12h-.17v6.13h22.49v-6.13h-15.43c1.51-1.02,2.26-2.44,2.26-4.25v-3.12h7.67v-4.42h-7.67v-7.81c0-1.31.31-2.32.91-3.03.6-.71,1.47-1.07,2.58-1.07,1.04,0,1.83.37,2.4,1.09.04.05.08.1.11.16.49.71.74,1.69.74,2.9v.2h6.41v-.24c0-3.29-.86-5.84-2.55-7.64-.13-.13-.26-.26-.39-.38.02-.02.05-.05.06-.07,10.93-13.44,18.48-23.46,19.49-24.71l.22-.27.27-.38Z"/>
    <path class="cls-7" d="M305.78,74.21l-.27.38-.22.27c-1.01,1.26-8.55,11.27-19.49,24.71-.02.02-.04.05-.06.07-1.67-1.54-3.94-2.32-6.8-2.32-3.09,0-5.5.82-7.21,2.47-1.7,1.65-2.56,3.97-2.56,6.97v8.71h-2.41v4.42h2.41v.05c-23.01,28.03-49.4,59.57-55.28,64.05,0,0-10.89,16.05-20.34,15.19-7.45-.57-9.45-2.87-19.49-12.32,0,0-6.01-8.31-14.32-9.17-8.6-.86-13.47,5.15-18.62,10.89l-60.73,68.55h-21.13l22.8-25.2,13.94-15.41,2.45-2.69h0s0-.02,0-.02h0s.32-.37.32-.37l34.99-38.67.04-.04s0,0,.02-.02c.09-.11.34-.38.72-.79.24-.27.56-.6.93-.97l.23-.23c.08-.07.16-.15.24-.24,4.23-4.22,13.99-12.73,23.13-11.89,12.37,1.1,17.05,5.5,25.57,14.16l7.97,7.56,45.43-50.81,7.85-8.8.06-.06-20.85-18.11-.05-.04,2.35-.88,6.1-2.29h0l5.8-2.18,66.51-24.95Z"/>
    <rect class="cls-15" x="168.53" y="104.21" width="5.05" height="13.65" rx="2.52" ry="2.52"/>
    <rect class="cls-15" x="168.53" y="240.74" width="5.05" height="13.65" rx="2.52" ry="2.52"/>
    <rect class="cls-15" x="101.22" y="172.77" width="5.05" height="13.65" rx="2.52" ry="2.52" transform="translate(283.35 75.85) rotate(90)"/>
    <rect class="cls-15" x="133.74" y="113.71" width="4.3" height="11.35" rx="2.15" ry="2.15" transform="translate(-44.03 100.73) rotate(-35.38)"/>
    <rect class="cls-1" x="204.21" y="113.71" width="4.3" height="11.35" rx="2.15" ry="2.15" transform="translate(87.34 -87.19) rotate(30)"/>
    <rect class="cls-1" x="229.29" y="208.4" width="4.21" height="10.75" rx="2.11" ry="2.11" transform="translate(538.33 142.82) rotate(124.25)"/>
    <rect class="cls-1" x="204.04" y="234.28" width="4.21" height="10.75" rx="2.11" ry="2.11" transform="translate(504.51 344.13) rotate(150)"/>
    <rect class="cls-15" x="108.42" y="139.55" width="4.3" height="10.78" rx="2.15" ry="2.15" transform="translate(-70.24 168.23) rotate(-60)"/>
    <rect class="cls-15" x="133.74" y="233.92" width="4.3" height="10.78" rx="2.15" ry="2.15" transform="translate(133.92 514.51) rotate(-150)"/>
    <path class="cls-5" d="M233.14,94.39l-6.62,2.49c-13.54-8.07-29.37-12.69-46.27-12.69-50.06,0-90.64,40.58-90.64,90.63,0,1.45.03,2.9.1,4.34.46,9.8,2.48,19.19,5.81,27.93l-2.08,2.3-14.74,16.3c-6.81-13.99-10.64-29.73-10.64-46.38,0-58.04,46.5-105.09,103.87-105.09,22.89,0,44.05,7.49,61.22,20.18Z"/>
    <path class="cls-9" d="M236.36,123.34l-2.56,2.87c-14.82-17.7-36.92-28.92-61.59-28.92-44.63,0-80.81,36.72-80.81,82,0,9.57,1.62,18.76,4.59,27.29l-.46.51c-3.33-8.73-5.35-18.13-5.81-27.93-.07-1.44-.1-2.88-.1-4.34,0-50.05,40.58-90.63,90.64-90.63,16.9,0,32.73,4.63,46.27,12.69l-7.61,2.87-6.78,2.55,24.23,21.04Z"/>
    <path class="cls-11" d="M275.77,181.64c.02.62.02,1.24.02,1.86,0,15.31-3.88,29.75-10.75,42.4-15.59,28.84-46.62,48.48-82.35,48.48-26.19,0-49.85-10.56-66.76-27.56-1.59-1.58-3.11-3.23-4.56-4.93l3.69-4.12.25-.27c1.57,1.59,3.2,3.1,4.89,4.54,14.05,12,32.2,19.24,52,19.24,44.63,0,80.81-36.72,80.81-82.01,0-1.48-.04-2.95-.12-4.41l16.28-17.56,2-2.14,1.48-1.6c2.05,8.23,3.13,16.85,3.13,25.73,0,.79,0,1.56-.02,2.34Z"/>
  </g>
  <text class="cls-3" transform="translate(331.74 209.11)"><tspan x="0" y="0">Ro</tspan><tspan class="cls-12" x="222.31" y="0">t</tspan><tspan class="cls-6" x="290.3" y="0">a</tspan></text>
  <text class="cls-4" transform="translate(724.35 205.15)"><tspan class="cls-13" x="0" y="0">P</tspan><tspan class="cls-12" x="111.79" y="0">a</tspan><tspan class="cls-6" x="203.65" y="0">y</tspan></text>
  <text class="cls-10" transform="translate(342.8 271.81)"><tspan x="0" y="0">Empl</tspan><tspan class="cls-8" x="89.12" y="0">oy</tspan><tspan x="127.72" y="0">ee Finan</tspan><tspan class="cls-16" x="272.51" y="0">c</tspan><tspan x="291.18" y="0">e &amp; Time Management</tspan></text>
</svg>