<?xml version="1.0" encoding="UTF-8"?>
<svg id="Layer_2" data-name="Layer 2" xmlns="http://www.w3.org/2000/svg" xmlns:xlink="http://www.w3.org/1999/xlink" viewBox="0 0 372.96 372.96">
  <defs>
    <style>
      .cls-1 {
        fill: #00c281;
      }

      .cls-2 {
        fill: url(#linear-gradient-2);
      }

      .cls-3 {
        fill: url(#linear-gradient-4);
      }

      .cls-4 {
        fill: url(#linear-gradient-3);
      }

      .cls-5 {
        fill: url(#linear-gradient-5);
      }

      .cls-6 {
        fill: url(#linear-gradient-6);
      }

      .cls-7 {
        fill: url(#linear-gradient);
      }

      .cls-8 {
        fill: #006fc9;
      }
    </style>
    <linearGradient id="linear-gradient" x1="29.72" y1="168.41" x2="343.58" y2="168.41" gradientUnits="userSpaceOnUse">
      <stop offset="0" stop-color="#2bb8d1"/>
      <stop offset="1" stop-color="#007bd2"/>
    </linearGradient>
    <linearGradient id="linear-gradient-2" x1="362.37" y1="119.94" x2="129.83" y2="290.36" gradientUnits="userSpaceOnUse">
      <stop offset=".04" stop-color="#00ada1"/>
      <stop offset=".99" stop-color="#007bd2"/>
    </linearGradient>
    <linearGradient id="linear-gradient-3" x1="66.94" y1="302.32" x2="281.58" y2="73.33" gradientUnits="userSpaceOnUse">
      <stop offset=".05" stop-color="#007bd2"/>
      <stop offset=".32" stop-color="#00bb74"/>
      <stop offset=".89" stop-color="#37d36b"/>
    </linearGradient>
    <linearGradient id="linear-gradient-4" x1="203.8" y1="44.99" x2="57.14" y2="195.51" xlink:href="#linear-gradient"/>
    <linearGradient id="linear-gradient-5" x1="79.03" y1="163.25" x2="216.57" y2="84.11" gradientUnits="userSpaceOnUse">
      <stop offset="0" stop-color="#0886d2"/>
      <stop offset=".36" stop-color="#00bf83"/>
      <stop offset="1" stop-color="#00c16b"/>
    </linearGradient>
    <linearGradient id="linear-gradient-6" x1="95.89" y1="297.8" x2="288.68" y2="216.28" gradientUnits="userSpaceOnUse">
      <stop offset="0" stop-color="#00be96"/>
      <stop offset="1" stop-color="#00c16b"/>
    </linearGradient>
  </defs>
  <path class="cls-7" d="M258.84,83.83l-7.37,2.78h0l-7.76,2.92-2.87,1.07-.12.05,26.58,23.09h.01s-10,11.2-10,11.2l-57.83,64.68-.05.05-10.15-9.62c-10.84-11.02-16.79-16.62-32.54-18.02-11.59-1.06-23.99,9.71-29.4,15.08-.1.11-.2.21-.3.3l-.29.29c-.46.47-.86.89-1.18,1.23-.49.51-.8.86-.92,1t-.02.02c-.05.07-.08.1-.08.1l-44.53,49.21-.4.43h0s-.01.03-.01.03h0s-3.13,3.46-3.13,3.46l-17.73,19.59-29.02,32.08h26.9l77.31-87.27c6.56-7.3,12.76-14.96,23.71-13.86,10.58,1.09,18.23,11.67,18.23,11.67,12.78,12.04,15.33,14.96,24.81,15.69,12.04,1.09,25.9-19.34,25.9-19.34,7.49-5.71,41.09-45.86,70.38-81.54v-.06h-3.07v-5.63h3.07v-11.09c0-3.82,1.09-6.77,3.26-8.87,2.18-2.09,5.24-3.14,9.18-3.14,3.65,0,6.53.99,8.66,2.95.03-.03.06-.06.08-.09,13.92-17.11,23.53-29.86,24.81-31.46l.28-.35.35-.49-84.74,31.86Z"/>
  <path class="cls-2" d="M343.58,51.97l-15.05,113.21-27.29-24.49-2.58,2.78-2.51,2.71-1.56,1.68-19.52,21.03h0s-45.56,49.12-45.56,49.12c0,0-12.95,13.3-28.34,12.6-16.1-1.05-18.9-4.9-33.24-17.84l-13.3-12.6-53.52,59.69-.32.35-4.7,5.24c1.85,2.16,3.79,4.26,5.81,6.27,21.53,21.64,51.65,35.08,84.99,35.08,45.49,0,84.99-25.01,104.84-61.72-21.61,44.13-66.58,74.46-118.55,74.46-32.66,0-62.55-11.98-85.62-31.83-2.15-1.85-4.24-3.77-6.26-5.76l-2.6,2.9h-22.08l77.31-87.27c6.56-7.3,12.76-14.96,23.71-13.86,10.58,1.09,18.23,11.67,18.23,11.67,12.78,12.04,15.33,14.96,24.81,15.69,12.04,1.09,25.9-19.34,25.9-19.34,7.49-5.71,41.09-45.86,70.38-81.54v3.91c0,1.71-.31,3.04-.92,3.98-.62.95-1.49,1.43-2.61,1.43h-.22v7.81h28.63v-7.81h-19.64c1.92-1.3,2.88-3.1,2.88-5.41v-3.97h9.76v-5.63h-9.76v-9.94c0-1.67.39-2.95,1.16-3.86.77-.9,1.87-1.36,3.28-1.36,1.32,0,2.33.47,3.05,1.39.05.06.1.13.14.2.63.91.94,2.15.94,3.69v.25h8.16v-.31c0-4.19-1.09-7.43-3.25-9.72-.16-.17-.33-.33-.5-.49.03-.03.06-.06.08-.09,13.92-17.11,23.53-29.86,24.81-31.46l.28-.35.35-.49Z"/>
  <path class="cls-4" d="M343.58,51.97l-.35.49-.28.35c-1.28,1.6-10.89,14.35-24.81,31.46-.02.03-.05.06-.08.09-2.13-1.96-5.01-2.95-8.66-2.95-3.94,0-7,1.05-9.18,3.14-2.17,2.1-3.26,5.05-3.26,8.87v11.09h-3.07v5.63h3.07v.06c-29.29,35.68-62.89,75.83-70.38,81.54,0,0-13.86,20.43-25.9,19.34-9.48-.73-12.03-3.65-24.81-15.69,0,0-7.65-10.58-18.23-11.67-10.95-1.1-17.15,6.56-23.71,13.86l-77.31,87.27h-26.9l29.02-32.08,17.74-19.62,3.12-3.42h0s.01-.03.01-.03h0s.41-.47.41-.47l44.55-49.23.05-.05s0-.01.02-.02c.12-.14.43-.49.92-1,.31-.34.71-.76,1.18-1.23l.29-.29c.1-.09.2-.19.3-.3,5.38-5.37,17.81-16.2,29.44-15.14,15.75,1.4,21.7,7,32.55,18.03l10.15,9.62,57.83-64.68,9.99-11.2.08-.08-26.54-23.06-.06-.05,2.99-1.12,7.76-2.92h.01l7.38-2.78,84.67-31.76Z"/>
  <rect class="cls-8" x="168.86" y="90.16" width="6.43" height="17.38" rx="2.74" ry="2.74"/>
  <rect class="cls-8" x="168.86" y="263.97" width="6.43" height="17.38" rx="2.74" ry="2.74"/>
  <rect class="cls-8" x="83.17" y="177.44" width="6.43" height="17.38" rx="2.74" ry="2.74" transform="translate(272.52 99.74) rotate(90)"/>
  <rect class="cls-8" x="124.57" y="102.25" width="5.48" height="14.44" rx="2.74" ry="2.74" transform="translate(-39.88 93.93) rotate(-35.38)"/>
  <rect class="cls-1" x="214.28" y="102.25" width="5.48" height="14.44" rx="2.74" ry="2.74" transform="translate(83.81 -93.84) rotate(30)"/>
  <rect class="cls-1" x="246.2" y="222.8" width="5.36" height="13.68" rx="2.14" ry="2.14" transform="translate(578.77 153.15) rotate(124.25)"/>
  <rect class="cls-1" x="214.07" y="255.74" width="5.36" height="13.68" rx="2.14" ry="2.14" transform="translate(535.75 381.62) rotate(150)"/>
  <rect class="cls-8" x="92.34" y="135.15" width="5.48" height="13.73" rx="2.74" ry="2.74" transform="translate(-75.45 153.35) rotate(-60)"/>
  <rect class="cls-8" x="124.57" y="255.29" width="5.48" height="13.73" rx="2.74" ry="2.74" transform="translate(106.48 552.83) rotate(-150)"/>
  <path class="cls-3" d="M251.11,77.66l-8.43,3.17c-17.24-10.27-37.39-16.16-58.91-16.16-63.73,0-115.39,51.66-115.39,115.38,0,1.85.04,3.69.13,5.52.59,12.47,3.16,24.43,7.4,35.55l-2.65,2.93-18.77,20.75c-8.67-17.81-13.54-37.85-13.54-59.05,0-73.89,59.2-133.78,132.23-133.78,29.14,0,56.08,9.53,77.93,25.69Z"/>
  <path class="cls-5" d="M255.21,114.51l-3.26,3.65c-18.87-22.53-47-36.82-78.41-36.82-56.82,0-102.88,46.74-102.88,104.39,0,12.18,2.06,23.88,5.84,34.74l-.59.65c-4.24-11.12-6.81-23.08-7.4-35.55-.09-1.83-.13-3.67-.13-5.52,0-63.72,51.66-115.38,115.39-115.38,21.52,0,41.67,5.89,58.91,16.16l-9.69,3.65-8.63,3.24,30.85,26.79Z"/>
  <path class="cls-6" d="M305.38,188.73c.02.79.03,1.58.03,2.37,0,19.49-4.94,37.87-13.68,53.98-19.85,36.71-59.35,61.72-104.84,61.72-33.34,0-63.46-13.44-84.99-35.08-2.02-2.01-3.96-4.11-5.81-6.27l4.7-5.24.32-.35c2,2.02,4.07,3.95,6.23,5.78,17.89,15.28,40.99,24.49,66.2,24.49,56.81,0,102.87-46.74,102.87-104.4,0-1.88-.05-3.75-.15-5.61l20.73-22.35,2.54-2.73,1.89-2.04c2.61,10.48,3.99,21.45,3.99,32.75,0,1,0,1.99-.03,2.98Z"/>
</svg>